<?xml version="1.0" standalone="no"?>
<!DOCTYPE svg PUBLIC "-//W3C//DTD SVG 20010904//EN"
 "http://www.w3.org/TR/2001/REC-SVG-20010904/DTD/svg10.dtd">
<svg version="1.0" xmlns="http://www.w3.org/2000/svg"
 width="16.000000pt" height="16.000000pt" viewBox="0 0 16.000000 16.000000"
 preserveAspectRatio="xMidYMid meet">
<metadata>
Created by potrace 1.11, written by Peter Selinger 2001-2013
</metadata>
<g transform="translate(0.000000,16.000000) scale(0.007273,-0.007273)"
fill="#000000" stroke="none">
<path d="M1042 2063 c-6 -2 -10 -9 -7 -13 3 -5 8 -51 10 -102 3 -51 7 -122 10
-158 11 -131 15 -186 19 -220 2 -19 7 -62 11 -95 20 -176 23 -191 48 -219 9
-11 17 -26 17 -33 0 -7 4 -13 8 -13 5 0 19 -8 31 -19 15 -13 37 -19 76 -18 31
0 58 4 61 8 3 5 10 7 15 4 5 -4 9 -1 9 4 0 6 7 11 15 11 8 0 15 4 15 9 0 5 9
13 20 16 11 3 34 27 52 53 17 26 36 50 42 54 6 4 8 8 4 8 -4 0 -1 8 7 18 8 9
14 19 13 22 -2 3 7 19 19 36 12 17 19 35 15 39 -4 5 -2 5 4 2 7 -4 10 -39 8
-94 -4 -142 -7 -182 -16 -177 -4 3 -8 -2 -8 -10 0 -9 -3 -15 -8 -13 -8 2 -97
-84 -97 -96 0 -4 -7 -12 -15 -17 -8 -5 -11 -10 -6 -10 6 0 1 -7 -10 -16 -10
-8 -13 -12 -5 -8 8 4 2 -9 -13 -29 -16 -20 -25 -37 -22 -37 4 0 -2 -13 -13
-29 -11 -15 -18 -31 -14 -35 3 -3 0 -6 -7 -6 -7 0 -11 -3 -8 -6 3 -3 -3 -31
-14 -62 -11 -31 -22 -65 -24 -75 -2 -9 -6 -26 -9 -37 -23 -94 -29 -142 -28
-260 1 -147 4 -169 36 -240 6 -14 10 -29 9 -33 -1 -4 9 -19 23 -33 14 -14 25
-28 25 -33 0 -8 40 -29 51 -27 3 0 12 -4 20 -10 15 -11 109 -11 151 0 15 5 30
17 33 27 4 11 11 17 16 14 9 -6 13 8 10 33 -1 6 3 12 9 12 5 0 9 3 9 7 -1 5 0
10 1 13 1 3 3 14 5 25 3 18 7 46 21 130 3 17 6 211 7 432 1 221 4 403 7 405 3
3 23 18 45 34 39 28 47 35 79 62 8 6 19 12 24 12 4 0 17 8 28 18 21 19 144 75
144 65 0 -3 6 0 13 6 8 6 18 7 22 3 5 -4 5 -1 1 6 -4 7 -2 12 5 12 8 0 8 4 -1
15 -10 12 -25 15 -59 11 -44 -5 -83 -12 -88 -16 -2 -2 -6 -3 -10 -4 -31 -6
-133 -54 -153 -73 -14 -13 -30 -23 -37 -23 -7 0 -13 -6 -13 -12 0 -10 -2 -10
-9 0 -11 18 -6 140 14 362 16 178 16 190 -5 207 -10 9 -25 18 -32 19 -7 1 -25
4 -40 7 -28 6 -42 -5 -44 -33 0 -8 -4 -33 -9 -55 -12 -54 -12 -54 -15 -62 -1
-5 -2 -12 -1 -17 1 -4 -4 -14 -10 -22 -6 -8 -9 -14 -5 -14 3 0 -3 -22 -14 -49
-10 -27 -16 -52 -13 -55 4 -3 2 -6 -3 -6 -5 0 -10 -10 -11 -22 -1 -11 -6 -24
-10 -27 -4 -3 -9 -13 -11 -21 -2 -8 -8 -16 -13 -18 -5 -2 -9 -10 -9 -18 0 -8
-5 -14 -11 -14 -5 0 -7 -5 -4 -10 7 -11 -76 -99 -94 -101 -6 -1 -17 -2 -23 -3
-34 -5 -85 44 -95 92 -7 31 -12 47 -13 47 -3 0 -20 94 -26 140 -7 52 -13 146
-19 275 -3 69 -7 134 -10 145 -2 11 -4 24 -4 28 -1 5 -5 6 -10 2 -5 -3 -12 -1
-16 5 -6 10 -50 12 -73 3z m535 -1015 c16 -278 18 -454 9 -608 -6 -85 -15
-160 -21 -170 -2 -4 -7 -22 -10 -40 -6 -32 -24 -74 -25 -56 0 5 -6 3 -14 -3
-8 -7 -27 -10 -43 -7 -15 2 -31 5 -34 5 -14 2 -68 59 -62 65 3 3 1 6 -6 6 -7
0 -9 5 -6 10 3 6 2 10 -3 10 -5 0 -9 6 -10 13 0 6 -4 28 -7 47 -11 62 -6 192
11 260 3 14 7 34 8 45 1 11 6 30 10 42 6 19 13 45 20 80 1 7 5 16 9 19 4 4 7
16 7 26 0 10 5 18 10 18 5 0 9 3 9 8 -1 4 0 10 1 15 1 4 4 10 5 15 11 33 31
72 38 72 4 0 6 4 3 8 -3 5 12 27 33 50 21 23 37 42 35 42 -2 0 4 9 13 20 21
24 19 23 20 8z"/>
<path d="M506 1738 c3 -4 0 -8 -6 -8 -13 0 -80 -66 -80 -78 0 -5 -9 -18 -20
-30 -12 -12 -18 -22 -15 -22 4 0 -3 -12 -14 -26 -12 -15 -21 -33 -21 -40 0 -8
-4 -14 -10 -14 -5 0 -7 -7 -4 -15 4 -8 1 -15 -5 -15 -6 0 -11 -4 -11 -9 0 -5
-5 -22 -12 -38 -6 -15 -11 -31 -10 -35 1 -5 -3 -8 -8 -8 -5 0 -9 -3 -8 -7 0
-5 -1 -15 -5 -23 -10 -26 -39 -120 -41 -133 -1 -7 -5 -18 -9 -24 -5 -7 -6 -13
-3 -13 3 0 -1 -15 -9 -34 -8 -18 -11 -36 -8 -40 4 -3 1 -6 -5 -6 -7 0 -11 -3
-10 -7 2 -10 -13 -75 -20 -88 -4 -5 -7 -14 -9 -20 -1 -5 -5 -21 -8 -35 -4 -14
-7 -31 -7 -37 -1 -7 -5 -13 -10 -13 -5 0 -7 -4 -4 -9 3 -4 0 -22 -6 -38 -10
-26 -8 -35 11 -67 13 -20 28 -36 34 -37 7 -1 24 -2 39 -3 22 -2 27 1 27 18 0
20 3 40 16 116 9 52 13 72 20 100 3 14 9 39 12 55 2 17 9 35 14 41 5 6 7 13 4
16 -3 3 2 21 10 41 8 21 12 37 9 37 -4 0 -1 7 6 15 7 8 9 15 5 15 -4 0 -2 6 4
13 6 8 8 17 4 20 -3 4 -1 7 5 7 7 0 11 3 10 8 -4 10 55 156 64 160 5 2 8 12 8
23 0 10 4 19 9 19 5 0 12 11 15 25 4 14 11 25 17 25 6 0 8 4 5 9 -3 5 1 11 9
15 8 3 15 12 15 21 0 8 5 15 10 15 6 0 9 -3 9 -7 -1 -5 0 -12 1 -18 2 -5 4
-132 4 -280 1 -262 2 -272 24 -305 12 -19 22 -31 22 -26 0 5 6 3 14 -3 26 -21
51 7 80 90 15 44 39 107 55 141 15 35 27 66 27 69 -1 4 6 15 14 25 9 11 25 36
35 57 11 20 23 37 28 37 4 0 6 4 3 8 -2 4 11 25 30 47 39 45 54 40 60 -22 8
-86 12 -120 22 -160 5 -24 8 -43 6 -43 -3 0 2 -13 10 -29 9 -16 12 -31 9 -35
-4 -3 -1 -6 6 -6 7 0 9 -4 6 -10 -3 -5 -1 -10 6 -10 7 0 10 -3 6 -6 -3 -3 6
-17 21 -31 15 -14 20 -22 12 -17 -9 5 -7 1 3 -8 11 -10 25 -18 33 -18 8 0 14
-5 14 -11 0 -5 4 -8 9 -4 5 3 12 1 15 -3 5 -9 96 -8 126 1 52 15 78 30 76 42
-4 25 -15 29 -79 31 -34 0 -71 5 -82 9 -29 13 -55 37 -49 47 3 4 1 8 -4 8 -10
0 -38 60 -34 73 1 4 -2 7 -6 7 -5 0 -9 6 -9 13 0 6 -4 32 -8 57 -4 25 -9 63
-10 85 -5 53 -14 135 -19 160 -3 11 -5 28 -5 37 -2 40 -45 59 -114 49 -11 -1
-99 -91 -90 -91 4 0 -2 -7 -13 -16 -10 -8 -12 -13 -4 -9 10 4 9 2 -2 -8 -10
-8 -18 -17 -18 -20 0 -4 -18 -42 -39 -86 -21 -44 -36 -82 -33 -85 3 -3 0 -6
-6 -6 -7 0 -11 -3 -10 -7 0 -5 -4 -19 -10 -33 l-11 -25 -1 25 c-1 14 -3 77 -5
140 -9 265 -15 307 -46 333 -21 17 -93 22 -83 5z"/>
</g>
</svg>
